# Blender v2.79 (sub 0) OBJ File: ''
# www.blender.org
mtllib banco.mtl
o Box001
v 3.057159 -0.001155 0.429131
v 3.057158 -0.001155 0.177244
v 3.309042 -0.001155 0.177247
v 3.309042 -0.001155 0.429129
v 3.057159 1.868257 0.429131
v 3.309042 1.868257 0.429129
v 3.309042 1.868257 0.177247
v 3.057158 1.868257 0.177244
v -3.707487 4.121634 1.446723
v -3.707488 3.453877 1.135345
v 3.704545 3.453877 1.135345
v 3.704545 4.121634 1.446724
v -3.707487 4.203214 1.271768
v 3.704545 4.203214 1.271768
v 3.704545 3.535461 0.960390
v -3.707487 3.535461 0.960393
v -3.707488 2.615470 0.744387
v -3.707488 1.947716 0.433008
v 3.704544 1.947716 0.433008
v 3.704544 2.615470 0.744387
v -3.707487 2.697051 0.569435
v 3.704545 2.697051 0.569436
v 3.704545 2.029298 0.258057
v -3.707487 2.029298 0.258057
v -3.707488 1.770414 -0.095290
v -3.707488 1.770415 -1.015501
v 3.704545 1.770414 -1.015500
v 3.704544 1.770414 -0.095289
v -3.707488 1.963454 -0.095290
v 3.704544 1.963454 -0.095289
v 3.704545 1.963454 -1.015500
v -3.707488 1.963454 -1.015501
v -3.326556 1.567538 0.368846
v -3.326556 1.567538 -1.547548
v -3.015863 1.567538 -1.547546
v -3.015864 1.567538 0.368844
v -3.326556 1.760577 0.368846
v -3.015864 1.760577 0.368844
v -3.015863 1.760577 -1.547546
v -3.326556 1.760577 -1.547548
v 3.030779 4.188298 1.571907
v 3.030779 1.682881 0.403611
v 3.341471 1.682881 0.403613
v 3.341471 4.188298 1.571905
v 3.030778 4.269883 1.396955
v 3.341471 4.269883 1.396953
v 3.341471 1.764464 0.228658
v 3.030778 1.764464 0.228660
v -3.303950 4.188298 1.571906
v -3.303951 1.682881 0.403610
v -2.993258 1.682881 0.403612
v -2.993258 4.188298 1.571904
v -3.303950 4.269883 1.396954
v -2.993258 4.269883 1.396952
v -2.993258 1.764464 0.228657
v -3.303951 1.764464 0.228659
v -3.307105 -0.001155 0.429132
v -3.307105 -0.001155 0.177245
v -3.055221 -0.001155 0.177248
v -3.055221 -0.001155 0.429130
v -3.307105 1.868257 0.429132
v -3.055221 1.868257 0.429130
v -3.055221 1.868257 0.177248
v -3.307105 1.868257 0.177245
v -3.707488 1.770414 0.374752
v -3.707487 1.770414 -0.058899
v 3.704544 1.770414 -0.058902
v 3.704545 1.770414 0.374748
v -3.707488 1.963454 0.374752
v 3.704545 1.963454 0.374748
v 3.704544 1.963454 -0.058902
v -3.707487 1.963454 -0.058899
v 3.030779 1.567538 0.368846
v 3.030779 1.567538 -1.547548
v 3.341471 1.567538 -1.547546
v 3.341471 1.567538 0.368844
v 3.030779 1.760577 0.368846
v 3.341471 1.760577 0.368844
v 3.341471 1.760577 -1.547546
v 3.030779 1.760577 -1.547548
v -3.707488 1.770415 -1.057343
v -3.707488 1.770415 -1.977550
v 3.704545 1.770414 -1.977554
v 3.704545 1.770414 -1.057343
v -3.707488 1.963454 -1.057343
v 3.704545 1.963454 -1.057343
v 3.704545 1.963454 -1.977554
v -3.707488 1.963454 -1.977550
v -3.707487 3.359016 1.091112
v -3.707487 2.691260 0.779733
v 3.704545 2.691260 0.779733
v 3.704545 3.359016 1.091112
v -3.707488 3.440597 0.916156
v 3.704545 3.440597 0.916156
v 3.704545 2.772844 0.604778
v -3.707487 2.772844 0.604781
v -3.307106 -0.001155 -1.475582
v -3.307105 -0.001155 -1.727465
v -3.055222 -0.001155 -1.727467
v -3.055221 -0.001155 -1.475580
v -3.307106 1.868257 -1.475582
v -3.055221 1.868257 -1.475580
v -3.055222 1.868257 -1.727467
v -3.307105 1.868257 -1.727465
v 3.057158 -0.001155 -1.475584
v 3.057158 -0.001155 -1.727466
v 3.309042 -0.001155 -1.727468
v 3.309042 -0.001155 -1.475581
v 3.057158 1.868257 -1.475584
v 3.309042 1.868257 -1.475581
v 3.309042 1.868257 -1.727468
v 3.057158 1.868257 -1.727466
vt 1.000000 0.000000
vt 1.000000 1.000000
vt 0.000000 1.000000
vt 0.000000 0.000000
vt 0.000000 0.000000
vt 1.000000 0.000000
vt 1.000000 1.000000
vt 0.000000 1.000000
vt 0.000000 0.000000
vt 1.000000 0.000000
vt 1.000000 1.000000
vt 0.000000 1.000000
vt 1.000000 0.000000
vt 0.000000 1.000000
vt 0.000000 0.000000
vt 1.000000 0.000000
vt 1.000000 1.000000
vt 0.000000 1.000000
vt 0.000000 0.000000
vt 1.000000 1.000000
vt 1.000000 0.000000
vt 1.000000 1.000000
vt 0.000000 1.000000
vt 0.000000 0.000000
vt 0.000000 0.000000
vt 1.000000 0.000000
vt 1.000000 1.000000
vt 0.000000 1.000000
vt 0.000000 0.000000
vt 1.000000 0.000000
vt 1.000000 1.000000
vt 0.000000 1.000000
vt 1.000000 0.000000
vt 0.000000 1.000000
vt 0.000000 0.000000
vt 1.000000 0.000000
vt 1.000000 1.000000
vt 0.000000 1.000000
vt 0.000000 0.000000
vt 1.000000 1.000000
vt 1.000000 0.000000
vt 1.000000 1.000000
vt 0.000000 1.000000
vt 0.000000 0.000000
vt 0.000000 0.000000
vt 1.000000 0.000000
vt 1.000000 1.000000
vt 0.000000 1.000000
vt 0.000000 0.000000
vt 1.000000 0.000000
vt 1.000000 1.000000
vt 0.000000 1.000000
vt 1.000000 0.000000
vt 0.000000 1.000000
vt 0.000000 0.000000
vt 1.000000 0.000000
vt 1.000000 1.000000
vt 0.000000 1.000000
vt 0.000000 0.000000
vt 1.000000 1.000000
vt 1.000000 0.000000
vt 1.000000 1.000000
vt 0.000000 1.000000
vt 0.000000 0.000000
vt 0.000000 0.000000
vt 1.000000 0.000000
vt 1.000000 1.000000
vt 0.000000 1.000000
vt 0.000000 0.000000
vt 1.000000 0.000000
vt 1.000000 1.000000
vt 0.000000 1.000000
vt 1.000000 0.000000
vt 0.000000 1.000000
vt 0.000000 0.000000
vt 1.000000 0.000000
vt 1.000000 1.000000
vt 0.000000 1.000000
vt 0.000000 0.000000
vt 1.000000 1.000000
vt 1.000000 0.000000
vt 1.000000 1.000000
vt 0.000000 1.000000
vt 0.000000 0.000000
vt 0.000000 0.000000
vt 1.000000 0.000000
vt 1.000000 1.000000
vt 0.000000 1.000000
vt 0.000000 0.000000
vt 1.000000 0.000000
vt 1.000000 1.000000
vt 0.000000 1.000000
vt 1.000000 0.000000
vt 0.000000 1.000000
vt 0.000000 0.000000
vt 1.000000 0.000000
vt 1.000000 1.000000
vt 0.000000 1.000000
vt 0.000000 0.000000
vt 1.000000 1.000000
vt 1.000000 0.000000
vt 1.000000 1.000000
vt 0.000000 1.000000
vt 0.000000 0.000000
vt 0.000000 0.000000
vt 1.000000 0.000000
vt 1.000000 1.000000
vt 0.000000 1.000000
vt 0.000000 0.000000
vt 1.000000 0.000000
vt 1.000000 1.000000
vt 0.000000 1.000000
vt 1.000000 0.000000
vt 0.000000 1.000000
vt 0.000000 0.000000
vt 1.000000 0.000000
vt 1.000000 1.000000
vt 0.000000 1.000000
vt 0.000000 0.000000
vt 1.000000 1.000000
vt 1.000000 0.000000
vt 1.000000 1.000000
vt 0.000000 1.000000
vt 0.000000 0.000000
vt 0.000000 0.000000
vt 1.000000 0.000000
vt 1.000000 1.000000
vt 0.000000 1.000000
vt 0.000000 0.000000
vt 1.000000 0.000000
vt 1.000000 1.000000
vt 0.000000 1.000000
vt 1.000000 0.000000
vt 0.000000 1.000000
vt 0.000000 0.000000
vt 1.000000 0.000000
vt 1.000000 1.000000
vt 0.000000 1.000000
vt 0.000000 0.000000
vt 1.000000 1.000000
vt 1.000000 0.000000
vt 1.000000 1.000000
vt 0.000000 1.000000
vt 0.000000 0.000000
vt 0.000000 0.000000
vt 1.000000 0.000000
vt 1.000000 1.000000
vt 0.000000 1.000000
vt 0.000000 0.000000
vt 1.000000 0.000000
vt 1.000000 1.000000
vt 0.000000 1.000000
vt 1.000000 0.000000
vt 0.000000 1.000000
vt 0.000000 0.000000
vt 1.000000 0.000000
vt 1.000000 1.000000
vt 0.000000 1.000000
vt 0.000000 0.000000
vt 1.000000 1.000000
vt 1.000000 0.000000
vt 1.000000 1.000000
vt 0.000000 1.000000
vt 0.000000 0.000000
vt 0.000000 0.000000
vt 1.000000 0.000000
vt 1.000000 1.000000
vt 0.000000 1.000000
vt 0.000000 0.000000
vt 1.000000 0.000000
vt 1.000000 1.000000
vt 0.000000 1.000000
vt 1.000000 0.000000
vt 0.000000 1.000000
vt 0.000000 0.000000
vt 1.000000 0.000000
vt 1.000000 1.000000
vt 0.000000 1.000000
vt 0.000000 0.000000
vt 1.000000 1.000000
vt 1.000000 0.000000
vt 1.000000 1.000000
vt 0.000000 1.000000
vt 0.000000 0.000000
vt 0.000000 0.000000
vt 1.000000 0.000000
vt 1.000000 1.000000
vt 0.000000 1.000000
vt 0.000000 0.000000
vt 1.000000 0.000000
vt 1.000000 1.000000
vt 0.000000 1.000000
vt 1.000000 0.000000
vt 0.000000 1.000000
vt 0.000000 0.000000
vt 1.000000 0.000000
vt 1.000000 1.000000
vt 0.000000 1.000000
vt 0.000000 0.000000
vt 1.000000 1.000000
vt 1.000000 0.000000
vt 1.000000 1.000000
vt 0.000000 1.000000
vt 0.000000 0.000000
vt 0.000000 0.000000
vt 1.000000 0.000000
vt 1.000000 1.000000
vt 0.000000 1.000000
vt 0.000000 0.000000
vt 1.000000 0.000000
vt 1.000000 1.000000
vt 0.000000 1.000000
vt 1.000000 0.000000
vt 0.000000 1.000000
vt 0.000000 0.000000
vt 1.000000 0.000000
vt 1.000000 1.000000
vt 0.000000 1.000000
vt 0.000000 0.000000
vt 1.000000 1.000000
vt 1.000000 0.000000
vt 1.000000 1.000000
vt 0.000000 1.000000
vt 0.000000 0.000000
vt 0.000000 0.000000
vt 1.000000 0.000000
vt 1.000000 1.000000
vt 0.000000 1.000000
vt 0.000000 0.000000
vt 1.000000 0.000000
vt 1.000000 1.000000
vt 0.000000 1.000000
vt 1.000000 0.000000
vt 0.000000 1.000000
vt 0.000000 0.000000
vt 1.000000 0.000000
vt 1.000000 1.000000
vt 0.000000 1.000000
vt 0.000000 0.000000
vt 1.000000 1.000000
vt 1.000000 0.000000
vt 1.000000 1.000000
vt 0.000000 1.000000
vt 0.000000 0.000000
vt 0.000000 0.000000
vt 1.000000 0.000000
vt 1.000000 1.000000
vt 0.000000 1.000000
vt 0.000000 0.000000
vt 1.000000 0.000000
vt 1.000000 1.000000
vt 0.000000 1.000000
vt 1.000000 0.000000
vt 0.000000 1.000000
vt 0.000000 0.000000
vt 1.000000 0.000000
vt 1.000000 1.000000
vt 0.000000 1.000000
vt 0.000000 0.000000
vt 1.000000 1.000000
vt 1.000000 0.000000
vt 1.000000 1.000000
vt 0.000000 1.000000
vt 0.000000 0.000000
vt 0.000000 0.000000
vt 1.000000 0.000000
vt 1.000000 1.000000
vt 0.000000 1.000000
vt 0.000000 0.000000
vt 1.000000 0.000000
vt 1.000000 1.000000
vt 0.000000 1.000000
vt 1.000000 0.000000
vt 0.000000 1.000000
vt 0.000000 0.000000
vt 1.000000 0.000000
vt 1.000000 1.000000
vt 0.000000 1.000000
vt 0.000000 0.000000
vt 1.000000 1.000000
vn 0.0000 -1.0000 -0.0000
vn 0.0000 1.0000 0.0000
vn 0.0000 -0.0000 1.0000
vn 1.0000 0.0000 -0.0000
vn 0.0000 0.0000 -1.0000
vn -1.0000 0.0000 0.0000
vn -0.0000 -0.4226 0.9063
vn -0.0000 0.4226 -0.9063
vn 0.0000 0.9063 0.4226
vn -0.0000 -0.9063 -0.4226
usemtl _crayfishdiffuse
s 1
f 1/1/1 2/2/1 3/3/1 4/4/1
f 5/5/2 6/6/2 7/7/2 8/8/2
f 1/9/3 4/10/3 6/11/3 5/12/3
f 4/4/4 3/13/4 7/7/4 6/14/4
f 3/15/5 2/16/5 8/17/5 7/18/5
f 2/19/6 1/1/6 5/20/6 8/8/6
f 33/21/1 34/22/1 35/23/1 36/24/1
f 37/25/2 38/26/2 39/27/2 40/28/2
f 33/29/3 36/30/3 38/31/3 37/32/3
f 36/24/4 35/33/4 39/27/4 38/34/4
f 35/35/5 34/36/5 40/37/5 39/38/5
f 34/39/6 33/21/6 37/40/6 40/28/6
f 41/41/7 42/42/7 43/43/7 44/44/7
f 45/45/8 46/46/8 47/47/8 48/48/8
f 41/49/9 44/50/9 46/51/9 45/52/9
f 44/44/4 43/53/4 47/47/4 46/54/4
f 43/55/10 42/56/10 48/57/10 47/58/10
f 42/59/6 41/41/6 45/60/6 48/48/6
f 49/61/7 50/62/7 51/63/7 52/64/7
f 53/65/8 54/66/8 55/67/8 56/68/8
f 49/69/9 52/70/9 54/71/9 53/72/9
f 52/64/4 51/73/4 55/67/4 54/74/4
f 51/75/10 50/76/10 56/77/10 55/78/10
f 50/79/6 49/61/6 53/80/6 56/68/6
f 57/81/1 58/82/1 59/83/1 60/84/1
f 61/85/2 62/86/2 63/87/2 64/88/2
f 57/89/3 60/90/3 62/91/3 61/92/3
f 60/84/4 59/93/4 63/87/4 62/94/4
f 59/95/5 58/96/5 64/97/5 63/98/5
f 58/99/6 57/81/6 61/100/6 64/88/6
f 73/101/1 74/102/1 75/103/1 76/104/1
f 77/105/2 78/106/2 79/107/2 80/108/2
f 73/109/3 76/110/3 78/111/3 77/112/3
f 76/104/4 75/113/4 79/107/4 78/114/4
f 75/115/5 74/116/5 80/117/5 79/118/5
f 74/119/6 73/101/6 77/120/6 80/108/6
f 97/121/1 98/122/1 99/123/1 100/124/1
f 101/125/2 102/126/2 103/127/2 104/128/2
f 97/129/3 100/130/3 102/131/3 101/132/3
f 100/124/4 99/133/4 103/127/4 102/134/4
f 99/135/5 98/136/5 104/137/5 103/138/5
f 98/139/6 97/121/6 101/140/6 104/128/6
f 105/141/1 106/142/1 107/143/1 108/144/1
f 109/145/2 110/146/2 111/147/2 112/148/2
f 105/149/3 108/150/3 110/151/3 109/152/3
f 108/144/4 107/153/4 111/147/4 110/154/4
f 107/155/5 106/156/5 112/157/5 111/158/5
f 106/159/6 105/141/6 109/160/6 112/148/6
usemtl 02___Default
f 9/161/7 10/162/7 11/163/7 12/164/7
f 13/165/8 14/166/8 15/167/8 16/168/8
f 9/169/9 12/170/9 14/171/9 13/172/9
f 12/164/4 11/173/4 15/167/4 14/174/4
f 11/175/10 10/176/10 16/177/10 15/178/10
f 10/179/6 9/161/6 13/180/6 16/168/6
f 17/181/7 18/182/7 19/183/7 20/184/7
f 21/185/8 22/186/8 23/187/8 24/188/8
f 17/189/9 20/190/9 22/191/9 21/192/9
f 20/184/4 19/193/4 23/187/4 22/194/4
f 19/195/10 18/196/10 24/197/10 23/198/10
f 18/199/6 17/181/6 21/200/6 24/188/6
f 25/201/1 26/202/1 27/203/1 28/204/1
f 29/205/2 30/206/2 31/207/2 32/208/2
f 25/209/3 28/210/3 30/211/3 29/212/3
f 28/204/4 27/213/4 31/207/4 30/214/4
f 27/215/5 26/216/5 32/217/5 31/218/5
f 26/219/6 25/201/6 29/220/6 32/208/6
f 65/221/1 66/222/1 67/223/1 68/224/1
f 69/225/2 70/226/2 71/227/2 72/228/2
f 65/229/3 68/230/3 70/231/3 69/232/3
f 68/224/4 67/233/4 71/227/4 70/234/4
f 67/235/5 66/236/5 72/237/5 71/238/5
f 66/239/6 65/221/6 69/240/6 72/228/6
f 81/241/1 82/242/1 83/243/1 84/244/1
f 85/245/2 86/246/2 87/247/2 88/248/2
f 81/249/3 84/250/3 86/251/3 85/252/3
f 84/244/4 83/253/4 87/247/4 86/254/4
f 83/255/5 82/256/5 88/257/5 87/258/5
f 82/259/6 81/241/6 85/260/6 88/248/6
f 89/261/7 90/262/7 91/263/7 92/264/7
f 93/265/8 94/266/8 95/267/8 96/268/8
f 89/269/9 92/270/9 94/271/9 93/272/9
f 92/264/4 91/273/4 95/267/4 94/274/4
f 91/275/10 90/276/10 96/277/10 95/278/10
f 90/279/6 89/261/6 93/280/6 96/268/6
